<?xml version="1.0" encoding="UTF-8"?> <svg xmlns="http://www.w3.org/2000/svg" width="118" height="48" viewBox="0 0 118 48" fill="none"><path fill-rule="evenodd" clip-rule="evenodd" d="M28.7996 5.9546C24.7496 8.3546 21.7603 12.2906 20.6031 14.9786C20.5067 15.2666 20.4103 15.7466 20.6031 15.7466C41.1424 9.0266 38.7317 40.7066 19.3496 36.5786C18.8674 41.6666 18.1924 43.9706 16.746 47.1386C16.6496 47.3306 16.3603 47.5226 16.1674 47.5226C15.9746 47.4266 15.8781 47.3306 15.8781 47.0426C16.4567 43.6826 17.0353 40.2266 14.4317 36.3866C12.5031 33.6026 5.17456 34.5626 2.66741 31.7786C-4.17901 23.8106 3.24598 10.8506 13.9496 16.6106C12.8888 12.7706 11.9246 6.9146 14.046 1.3466C14.046 1.2506 14.1424 1.0586 14.2388 0.962598C14.5281 0.674598 15.1067 0.962598 15.4924 1.0586C16.3603 1.3466 16.8424 1.8266 17.7103 2.1146C18.1924 2.6906 17.3246 3.1706 17.421 4.0346C18.096 3.1706 18.4817 2.0186 19.1567 1.0586C20.6031 1.4426 21.5674 2.3066 22.3388 3.2666C21.7603 4.8026 20.8924 6.0506 20.4103 7.6826C21.6638 6.3386 24.2674 3.8426 26.7746 2.7866C27.7388 3.3626 28.7996 5.5706 28.7996 5.9546Z" fill="#A51440"></path><path d="M42.7813 31.8741C42.7813 31.5861 42.7813 29.6661 42.6848 29.4741C42.6848 29.1861 42.7813 26.5941 42.6848 26.2101C42.5884 25.9221 42.6848 25.2501 42.6848 24.9621C42.6848 24.3861 42.5884 21.3141 42.5884 21.0261C42.5884 20.2581 42.492 17.8581 42.492 17.4741C42.492 17.0901 42.492 16.7061 42.492 16.3221C42.492 16.0341 42.3956 15.4581 42.6848 15.2661C42.7813 15.1701 42.8777 15.0741 43.0706 14.9781C43.5527 14.7861 44.2277 14.7861 44.8063 14.7861C45.5777 14.7861 46.3491 14.9781 46.9277 15.3621C48.0848 16.1301 48.2777 16.7061 48.567 17.0901C49.0491 17.8581 49.242 19.3941 49.242 20.2581C49.1456 21.3141 48.9527 21.7941 48.4706 22.8501C48.2777 23.3301 47.892 24.0021 47.4098 24.3861C47.3134 24.4821 47.1206 24.6741 47.0241 24.6741C47.217 24.7701 47.3134 24.8661 47.4098 24.8661C47.9884 25.3461 48.2777 25.6341 48.6634 26.1141C49.242 26.9781 49.5313 27.5541 49.8206 28.7061C50.0134 29.5701 50.2063 30.6261 50.2063 31.5861C50.2063 32.5461 50.1098 33.7941 49.5313 34.5621C49.242 35.0421 49.0491 35.3301 48.567 35.7141C48.2777 35.9061 47.9884 36.1941 47.6991 36.3861C47.3134 36.5781 47.1206 36.6741 46.6384 36.8661C46.3491 36.9621 46.0598 37.0581 45.192 37.0581C44.8063 37.0581 43.6491 37.0581 43.3598 37.0581C43.2634 37.0581 42.6848 37.0581 42.6848 36.5781C42.6848 36.4821 42.6848 35.3301 42.6848 35.2341C42.6848 35.0421 42.7813 32.0661 42.7813 31.8741ZM44.517 35.0421C44.6134 35.0421 45.5777 35.0421 45.6741 35.0421C46.3491 35.0421 47.217 34.3701 47.4098 34.0821C47.6991 33.6981 48.1813 33.2181 48.0848 32.0661C48.0848 31.6821 48.0848 31.1061 48.0848 30.8181C47.9884 29.9541 47.9884 29.2821 47.6027 28.4181C47.4098 27.9381 47.217 27.4581 46.6384 26.8821C46.6384 26.8821 46.2527 26.4981 46.0598 26.2101C45.9634 26.1141 45.867 26.0181 45.7706 26.0181C45.6741 26.0181 45.5777 25.9221 45.2884 25.9221C44.9991 25.9221 44.517 25.9221 44.4206 26.0181C44.4206 26.3061 44.4206 26.5941 44.4206 26.7861C44.517 27.6501 44.3241 28.5141 44.4206 29.3781C44.517 30.2421 44.4206 30.9141 44.4206 31.7781C44.517 32.7381 44.4206 33.8901 44.517 35.0421ZM44.517 24.1941C44.7098 24.0981 45.0956 24.0981 45.192 24.0021C46.3491 23.2341 46.542 22.4661 46.8313 21.7941C47.0241 21.3141 47.217 20.9301 47.217 20.0661C47.217 19.3941 47.1206 18.5301 46.8313 17.9541C46.6384 17.5701 45.867 16.8981 45.4813 16.8981C45.0956 16.7061 44.4206 16.8981 44.4206 17.3781C44.4206 17.8581 44.4206 18.6261 44.4206 19.1061C44.4206 19.5861 44.517 20.2581 44.517 20.8341C44.517 21.6021 44.6134 22.5621 44.517 23.6181C44.517 23.6181 44.517 23.9061 44.517 24.1941Z" fill="#221E20"></path><path d="M54.2566 35.043C54.353 35.043 54.6423 35.139 54.7387 35.043C55.1244 35.043 55.703 35.139 56.8602 35.043C57.053 35.043 58.1137 34.947 58.3066 35.043C58.4994 35.235 58.403 35.235 58.403 35.811C58.403 35.907 58.403 36.483 58.403 36.579C58.3066 36.675 58.403 36.963 58.2102 36.963C58.0173 36.963 57.4387 36.963 57.2459 36.963C56.5709 36.963 55.6066 36.963 55.2209 36.963C55.028 36.963 54.353 36.963 54.1602 36.963C54.1602 36.963 52.5209 36.963 52.5209 36.867C52.4244 36.675 52.5209 36.675 52.4244 36.387C52.328 36.195 52.328 34.467 52.4244 34.275C52.4244 34.083 52.4244 30.915 52.328 30.147C52.328 30.051 52.328 30.051 52.328 29.955V29.859C52.328 29.763 52.328 29.763 52.328 29.667C52.4244 28.995 52.328 27.363 52.328 27.171C52.328 26.787 52.4244 24.771 52.4244 24.387C52.4244 23.907 52.4244 21.603 52.4244 21.219C52.4244 20.643 52.328 19.875 52.4244 19.011C52.4244 18.819 52.328 17.091 52.328 16.803C52.328 16.515 52.2316 15.939 52.328 15.555C52.328 15.267 52.2316 14.883 52.4244 14.787C52.6173 14.595 52.9066 14.595 53.3887 14.691C53.4852 14.691 54.7387 14.691 54.8352 14.691C55.5102 14.691 56.5709 14.691 56.8602 14.691C57.3423 14.691 58.0173 14.691 58.4994 14.691C58.6923 14.691 58.6923 15.171 58.6923 15.459C58.6923 15.555 58.6923 16.419 58.5959 16.419C58.4994 16.515 58.2102 16.419 58.0173 16.419C57.728 16.419 56.9566 16.419 56.6673 16.419C56.0887 16.323 54.6423 16.419 54.5459 16.419C54.2566 16.419 54.1602 16.419 54.2566 16.707C54.2566 16.995 54.2566 17.187 54.2566 17.475C54.2566 17.667 54.2566 18.051 54.2566 18.243C54.2566 18.627 54.2566 19.395 54.2566 19.779C54.2566 20.259 54.353 21.699 54.353 22.179C54.353 22.467 54.353 23.043 54.353 23.331C54.353 23.427 54.353 23.427 54.353 23.523C54.353 23.811 54.353 23.811 54.6423 23.811C54.9316 23.811 56.7637 23.907 57.1494 23.811C57.4387 23.811 57.6316 23.811 57.728 23.907C57.8244 24.003 57.728 24.387 57.8244 24.963C57.8244 25.059 57.8244 25.539 57.728 25.635C57.6316 25.635 56.8602 25.635 56.5709 25.635C56.1852 25.635 55.703 25.635 55.3173 25.635C55.3173 25.635 54.7387 25.731 54.4494 25.731C54.2566 25.731 54.2566 25.827 54.2566 25.923C54.2566 26.307 54.2566 26.979 54.2566 27.459C54.2566 27.651 54.2566 31.779 54.2566 32.163C54.2566 32.835 54.2566 33.507 54.2566 34.179C54.1602 34.563 54.1602 34.851 54.2566 35.043Z" fill="#221E20"></path><path d="M62.2605 35.043C62.3569 35.043 62.6462 35.139 62.7426 35.043C63.1283 35.043 63.7069 35.139 64.8641 35.043C65.0569 35.043 66.1176 34.947 66.3105 35.043C66.5033 35.235 66.4069 35.235 66.4069 35.811C66.4069 35.907 66.4069 36.483 66.4069 36.579C66.3105 36.675 66.4069 36.963 66.2141 36.963C66.0212 36.963 65.4426 36.963 65.2498 36.963C64.5748 36.963 63.6105 36.963 63.2248 36.963C63.0319 36.963 62.3569 36.963 62.1641 36.963C62.1641 36.963 60.5248 36.963 60.5248 36.867C60.4283 36.675 60.5248 36.675 60.4283 36.387C60.3319 36.195 60.3319 34.467 60.4283 34.275C60.4283 34.083 60.4283 30.915 60.3319 30.147C60.3319 30.051 60.3319 30.051 60.3319 29.955V29.859C60.3319 29.763 60.3319 29.763 60.3319 29.667C60.4283 28.995 60.3319 27.363 60.3319 27.171C60.3319 26.787 60.4283 24.771 60.4283 24.387C60.4283 23.907 60.4283 21.603 60.4283 21.219C60.4283 20.643 60.3319 19.875 60.4283 19.011C60.4283 18.819 60.3319 17.091 60.3319 16.803C60.3319 16.515 60.2355 15.939 60.3319 15.555C60.3319 15.267 60.2355 14.883 60.4283 14.787C60.6212 14.595 60.9105 14.595 61.3926 14.691C61.4891 14.691 62.7426 14.691 62.8391 14.691C63.5141 14.691 64.5748 14.691 64.8641 14.691C65.3462 14.691 66.0212 14.691 66.5034 14.691C66.6962 14.691 66.6962 15.171 66.6962 15.459C66.6962 15.555 66.6962 16.419 66.5998 16.419C66.5033 16.515 66.2141 16.419 66.0212 16.419C65.7319 16.419 64.9605 16.419 64.6712 16.419C64.0926 16.323 62.6462 16.419 62.5498 16.419C62.2605 16.419 62.1641 16.419 62.2605 16.707C62.2605 16.995 62.2605 17.187 62.2605 17.475C62.2605 17.667 62.2605 18.051 62.2605 18.243C62.2605 18.627 62.2605 19.395 62.2605 19.779C62.2605 20.259 62.3569 21.699 62.3569 22.179C62.3569 22.467 62.3569 23.043 62.3569 23.331C62.3569 23.427 62.3569 23.427 62.3569 23.523C62.3569 23.811 62.3569 23.811 62.6462 23.811C62.9355 23.811 64.7676 23.907 65.1533 23.811C65.4426 23.811 65.6355 23.811 65.7319 23.907C65.8283 24.003 65.7319 24.387 65.8283 24.963C65.8283 25.059 65.8283 25.539 65.7319 25.635C65.6355 25.635 64.8641 25.635 64.5748 25.635C64.1891 25.635 63.7069 25.635 63.3212 25.635C63.3212 25.635 62.7426 25.731 62.4533 25.731C62.2605 25.731 62.2605 25.827 62.2605 25.923C62.2605 26.307 62.2605 26.979 62.2605 27.459C62.2605 27.651 62.2605 31.779 62.2605 32.163C62.2605 32.835 62.2605 33.507 62.2605 34.179C62.2605 34.563 62.1641 34.851 62.2605 35.043Z" fill="#221E20"></path><path d="M90.9962 14.7861C91.0926 14.7861 91.2855 14.7861 91.4783 14.7861C92.0569 14.7861 92.5391 14.9781 93.3105 15.3621C93.8891 15.7461 94.3712 16.2261 94.5641 16.5141C94.7569 16.8021 94.9498 17.0901 95.1426 17.4741C95.3355 17.9541 95.4319 18.2421 95.6248 18.6261L95.7212 19.0101C95.7212 19.0101 95.7212 19.2021 95.8176 19.2021C95.9141 19.7781 96.2033 21.1221 96.2033 21.6981C96.2998 22.8501 96.2998 23.9061 96.3962 24.4821C96.3962 24.6741 96.3962 24.8661 96.3962 24.9621C96.3962 25.2501 96.3962 26.9781 96.3962 27.2661V27.4581C96.3962 27.9381 96.3962 28.9941 96.2998 29.7621C96.2998 30.0501 96.1069 31.4901 96.0105 31.6821V31.7781C95.9141 32.1621 95.7212 33.2181 95.2391 34.1781C94.8533 35.0421 94.2748 35.6181 93.4069 36.2901C92.8283 36.6741 91.7676 36.9621 91.1891 36.9621C90.7069 36.9621 90.3212 36.8661 89.9355 36.7701C89.2605 36.5781 88.7783 36.2901 88.2962 35.9061C88.0069 35.7141 87.5248 35.1381 87.3319 34.7541C87.0426 34.2741 86.5605 33.0261 86.3676 32.4501C86.3676 32.3541 86.3676 32.2581 86.2712 32.1621C86.1748 31.9701 86.1748 31.7781 86.1748 31.6821C86.0783 31.2021 85.8855 29.7621 85.8855 29.3781C85.8855 28.9941 85.7891 26.8821 85.7891 26.5941C85.7891 26.2101 85.7891 25.7301 85.7891 25.4421C85.7891 25.1541 85.7891 24.7701 85.7891 24.3861C85.7891 23.8101 85.7891 23.0421 85.8855 22.4661C85.8855 22.3701 85.8855 22.1781 85.9819 21.8901C86.0783 21.3141 86.0783 20.6421 86.1748 20.2581C86.2712 19.4901 86.4641 18.8181 86.5605 18.3381C86.7533 17.5701 87.1391 16.8981 87.7176 16.2261C88.6819 15.1701 89.5498 14.9781 90.0319 14.8821C90.2248 14.8821 90.6105 14.7861 90.8033 14.7861C90.7069 14.7861 90.8033 14.7861 90.9962 14.7861ZM92.2498 34.7541C93.0212 34.3701 93.2141 33.9861 93.5033 33.4101C93.8891 32.6421 94.0819 31.8741 94.1783 31.4901V31.3941C94.1783 31.2021 94.3712 30.0501 94.3712 29.7621C94.3712 28.9941 94.4676 27.9381 94.4676 27.4581V27.2661C94.4676 26.9781 94.4676 25.4421 94.4676 25.2501C94.4676 25.1541 94.4676 24.9621 94.4676 24.5781C94.4676 24.0021 94.4676 23.0421 94.3712 21.9861C94.2748 21.1221 94.0819 19.9701 93.9855 19.7781C93.9855 19.7781 93.9855 19.6821 93.9855 19.5861C93.6962 18.6261 93.3105 17.9541 93.1176 17.5701C93.0212 17.3781 92.7319 17.0901 92.4426 16.8981C92.0569 16.6101 91.6712 16.6101 91.5748 16.6101C91.3819 16.6101 91.2855 16.6101 91.0926 16.6101C90.8998 16.6101 90.6105 16.6101 90.5141 16.6101C90.1283 16.7061 89.6462 16.8021 89.1641 17.3781C88.7783 17.7621 88.5855 18.2421 88.3926 18.7221C88.3926 18.9141 88.1998 19.3941 88.0069 20.4501C88.0069 20.7381 87.9105 21.4101 87.8141 21.8901C87.8141 22.0821 87.8141 22.2741 87.7176 22.4661C87.6212 22.9461 87.6212 23.7141 87.6212 24.2901C87.6212 24.7701 87.6212 25.1541 87.6212 25.4421C87.6212 25.7301 87.6212 26.2101 87.6212 26.4981C87.6212 26.9781 87.6212 28.7061 87.7176 29.0901C87.7176 29.3781 87.9105 30.7221 88.0069 31.2021C88.0069 31.2981 88.1033 31.4901 88.1033 31.6821C88.1033 31.8741 88.1998 31.9701 88.1998 32.0661C88.2962 32.4501 88.6819 33.5061 88.9712 33.7941C89.0676 33.9861 89.3569 34.3701 89.4533 34.3701C89.8391 34.6581 90.1283 34.7541 90.4176 34.8501C90.7069 34.9461 90.9962 34.9461 91.2855 34.9461C91.3819 35.0421 91.8641 34.9461 92.2498 34.7541Z" fill="#221E20"></path><path d="M103.146 14.7861C103.242 14.7861 103.435 14.7861 103.628 14.7861C104.206 14.7861 104.688 14.9781 105.46 15.3621C106.038 15.7461 106.521 16.2261 106.713 16.5141C106.906 16.8021 107.099 17.0901 107.292 17.4741C107.485 17.9541 107.581 18.2421 107.774 18.6261L107.871 19.0101C107.871 19.0101 107.871 19.2021 107.967 19.2021C108.063 19.7781 108.353 21.1221 108.353 21.6981C108.449 22.8501 108.449 23.9061 108.546 24.4821C108.546 24.6741 108.546 24.8661 108.546 24.9621C108.546 25.2501 108.546 26.9781 108.546 27.2661V27.4581C108.546 27.9381 108.546 28.9941 108.449 29.7621C108.449 30.0501 108.256 31.4901 108.16 31.6821V31.7781C108.063 32.1621 107.871 33.2181 107.388 34.1781C107.003 35.0421 106.424 35.6181 105.556 36.2901C104.978 36.6741 103.917 36.9621 103.338 36.9621C102.856 36.9621 102.471 36.8661 102.085 36.7701C101.41 36.5781 100.928 36.2901 100.446 35.9061C100.156 35.7141 99.6742 35.1381 99.4813 34.7541C99.192 34.2741 98.7099 33.0261 98.517 32.4501C98.517 32.3541 98.517 32.2581 98.4206 32.1621C98.3242 31.9701 98.3242 31.7781 98.3242 31.6821C98.2278 31.2021 98.0349 29.7621 98.0349 29.3781C98.0349 28.9941 97.9385 26.8821 97.9385 26.5941C97.9385 26.2101 97.9385 25.7301 97.9385 25.4421C97.9385 25.1541 97.9385 24.7701 97.9385 24.3861C97.9385 23.8101 97.9385 23.0421 98.0349 22.4661C98.0349 22.3701 98.0349 22.1781 98.1313 21.8901C98.2278 21.3141 98.2278 20.6421 98.3242 20.2581C98.4206 19.4901 98.6135 18.8181 98.7099 18.3381C98.9028 17.5701 99.2885 16.8981 99.867 16.2261C100.831 15.1701 101.699 14.9781 102.181 14.8821C102.374 14.8821 102.76 14.7861 102.953 14.7861C102.953 14.7861 103.049 14.7861 103.146 14.7861ZM104.399 34.7541C105.171 34.3701 105.363 33.9861 105.653 33.4101C106.038 32.6421 106.231 31.8741 106.328 31.4901V31.3941C106.328 31.2021 106.521 30.0501 106.521 29.7621C106.521 28.9941 106.617 27.9381 106.617 27.4581V27.2661C106.617 26.9781 106.617 25.4421 106.617 25.2501C106.617 25.1541 106.617 24.9621 106.617 24.5781C106.617 24.0021 106.617 23.0421 106.521 21.9861C106.424 21.1221 106.231 19.9701 106.135 19.7781C106.135 19.7781 106.135 19.6821 106.135 19.5861C105.846 18.6261 105.46 17.9541 105.267 17.5701C105.171 17.3781 104.881 17.0901 104.592 16.8981C104.206 16.6101 103.821 16.6101 103.724 16.6101C103.531 16.6101 103.435 16.6101 103.242 16.6101C103.049 16.6101 102.76 16.6101 102.663 16.6101C102.278 16.7061 101.796 16.8021 101.313 17.3781C100.928 17.7621 100.735 18.2421 100.542 18.7221C100.542 18.9141 100.349 19.3941 100.156 20.4501C100.156 20.7381 100.06 21.4101 99.9635 21.8901C99.9635 22.0821 99.9635 22.2741 99.867 22.4661C99.7706 22.9461 99.7706 23.7141 99.7706 24.2901C99.7706 24.7701 99.7706 25.1541 99.7706 25.4421C99.7706 25.7301 99.7706 26.2101 99.7706 26.4981C99.7706 26.9781 99.7706 28.7061 99.867 29.0901C99.867 29.3781 100.06 30.7221 100.156 31.2021C100.156 31.2981 100.253 31.4901 100.253 31.6821C100.253 31.8741 100.349 31.9701 100.349 32.0661C100.446 32.4501 100.831 33.5061 101.121 33.7941C101.217 33.9861 101.506 34.3701 101.603 34.3701C101.988 34.6581 102.278 34.7541 102.567 34.8501C102.856 34.9461 103.146 34.9461 103.435 34.9461C103.531 35.0421 104.013 34.9461 104.399 34.7541Z" fill="#221E20"></path><path d="M79.7137 25.7307C79.5209 25.8267 79.5209 25.8267 79.5209 25.8267C79.5209 26.2107 79.5209 26.5947 79.4245 26.9787C79.4245 27.7467 79.328 28.2267 79.4245 28.9947C79.4245 29.6667 79.328 30.0507 79.4245 31.2027C79.4245 31.5867 79.5209 33.5067 79.5209 33.9867C79.5209 34.2747 79.5209 34.7547 79.5209 35.1387C79.5209 35.5227 79.5209 35.9067 79.5209 36.0987C79.5209 36.3867 79.6173 36.5787 79.5209 36.8667C79.5209 36.9627 79.328 36.9627 79.2316 36.9627C79.1352 36.9627 77.8816 37.0587 77.7852 36.9627C77.5923 36.8667 77.6887 36.0027 77.7852 35.7147C77.7852 35.4267 77.7852 34.7547 77.7852 33.7947C77.7852 33.6987 77.7852 33.3147 77.7852 32.7387C77.7852 32.3547 77.7852 31.7787 77.7852 31.2027C77.7852 30.8187 77.7852 30.5307 77.7852 29.6667C77.7852 29.4747 77.7852 28.0347 77.7852 27.9387C77.7852 27.3627 77.7852 26.6907 77.8816 26.1147C77.8816 25.8267 77.8816 25.4427 77.8816 25.1547C77.8816 25.0587 77.8816 24.9627 77.8816 24.9627C77.8816 24.3867 77.8816 23.9067 77.8816 23.3307C77.8816 23.2347 77.7852 22.4667 77.8816 22.1787C77.8816 21.9867 77.8816 21.1227 77.8816 21.0267C77.978 20.6427 77.8816 20.7387 77.8816 20.2587C77.8816 19.4907 77.7852 17.9547 77.7852 17.8587C77.8816 17.3787 77.7852 16.8987 77.8816 16.3227C78.0745 15.5547 78.4602 15.0747 79.1352 14.7867C79.4245 14.6907 80.0995 14.6907 80.5816 14.8827C81.4495 15.0747 81.9316 15.4587 82.2209 15.6507C82.5102 15.8427 82.703 16.1307 82.8959 16.4187C83.1852 16.7067 83.2816 17.0907 83.4745 17.4747C83.5709 17.6667 83.5709 17.9547 83.6673 18.1467C83.8602 18.8187 83.9566 19.3947 83.9566 19.6827C83.9566 20.6427 83.8602 21.2187 83.6673 21.5067C83.4745 22.2747 83.2816 22.6587 82.8959 23.2347C82.8959 23.3307 82.703 23.5227 82.703 23.6187C82.4137 23.9067 82.4137 24.0987 82.1245 24.3867C81.9316 24.5787 81.4495 25.0587 81.4495 25.1547C81.6423 25.9227 82.028 26.4027 82.1245 27.1707C82.3173 28.0347 82.6066 28.8027 82.8959 29.6667C83.0887 30.3387 83.2816 30.8187 83.5709 31.7787C83.7637 32.2587 83.8602 33.0267 84.053 33.6987C84.2459 34.4667 84.3423 34.8507 84.6316 35.6187C84.728 35.9067 84.9209 36.3867 84.8245 36.6747C84.8245 36.9627 84.2459 36.9627 83.8602 36.9627C83.7637 36.9627 83.2816 36.9627 83.0887 36.9627C82.8959 36.6747 82.7995 36.2907 82.5102 35.1387C82.5102 35.1387 81.8352 32.3547 81.5459 31.4907C81.353 30.7227 80.8709 28.9947 80.678 28.3227C80.4852 27.4587 80.0995 26.5947 79.9066 26.2107C79.8102 26.0187 79.8102 25.9227 79.7137 25.7307ZM79.5209 22.7547C79.5209 23.0427 79.5209 23.6187 79.5209 23.9067C79.5209 24.0987 79.6173 24.0987 79.7137 24.0987C80.003 24.0027 80.1959 23.8107 80.3887 23.6187C80.5816 23.2347 81.2566 22.5627 81.4495 21.9867C81.6423 21.5067 81.8352 21.6027 82.028 20.4507C82.028 20.2587 82.1245 19.6827 81.9316 18.9147C81.8352 18.4347 81.7387 18.2427 81.4495 17.8587C81.2566 17.5707 80.9673 17.3787 80.8709 17.2827C80.678 17.0907 80.3887 17.0907 80.0995 16.9947C80.003 16.9947 79.6173 16.9947 79.5209 17.0907C79.4245 17.2827 79.5209 17.6667 79.5209 17.7627C79.5209 18.1467 79.5209 18.6267 79.5209 18.9147C79.6173 19.9707 79.5209 20.8347 79.5209 21.8907C79.5209 22.1787 79.5209 22.4667 79.5209 22.7547Z" fill="#221E20"></path><path d="M72.9635 20.0664C72.9635 21.0264 72.7706 29.2824 72.8671 29.2824C72.8671 29.3784 72.8671 30.5304 72.8671 30.6264C72.8671 30.8184 72.8671 31.5864 72.8671 32.8344C72.8671 33.3144 72.8671 35.0424 72.8671 35.4264C72.8671 35.5224 72.8671 35.9064 72.8671 36.3864C72.8671 36.5784 72.8671 36.6744 72.8671 36.7704C72.8671 36.8664 72.8671 36.8664 72.8671 36.8664C72.8671 36.8664 72.6742 36.8664 72.4814 36.8664C72.2885 36.8664 72.0956 36.8664 71.9028 36.8664C71.2278 36.8664 71.2278 36.8664 71.2278 36.7704C71.2278 36.5784 71.2278 35.9064 71.2278 35.6184C71.2278 35.1384 71.2278 34.2744 71.2278 33.7944C71.2278 33.3144 71.2278 32.5464 71.2278 31.9704C71.2278 31.9704 71.3242 30.5304 71.3242 29.8584C71.3242 29.6664 71.3242 29.5704 71.3242 29.3784C71.3242 28.7064 71.4206 27.9384 71.4206 27.2664C71.4206 26.6904 71.3242 26.2104 71.3242 25.6344C71.3242 25.0584 71.3242 24.5784 71.4206 24.0024C71.4206 23.8104 71.4206 23.6184 71.4206 23.4264C71.4206 22.8504 71.4206 22.0824 71.3242 21.4104C71.3242 21.2184 71.3242 20.9304 71.3242 20.7384C71.3242 20.1624 71.3242 19.5864 71.3242 19.0104C71.3242 18.9144 71.2278 18.4344 71.2278 18.1464C71.2278 17.4744 71.2278 16.7064 71.2278 16.6104C71.1314 16.5144 70.6492 16.6104 70.3599 16.6104C69.8778 16.6104 69.6849 16.5144 69.0099 16.6104C68.5278 16.6104 68.1421 16.7064 67.9492 16.6104C67.9492 16.5144 67.9492 16.1304 67.9492 15.6504C67.9492 15.2664 67.9492 14.7864 68.0456 14.7864C68.2385 14.6904 68.6242 14.6904 68.9135 14.6904C69.6849 14.6904 70.1671 14.6904 70.8421 14.6904C71.6135 14.6904 72.1921 14.6904 72.9635 14.6904C73.7349 14.6904 74.3135 14.6904 74.8921 14.6904C75.0849 14.6904 75.6635 14.6904 76.3385 14.6904C76.8206 14.6904 76.5314 14.8824 76.6278 15.2664C76.6278 15.4584 76.7242 16.3224 76.5313 16.4184C76.4349 16.5144 76.0492 16.5144 75.6635 16.5144C75.0849 16.5144 74.8921 16.5144 74.0242 16.5144C73.6385 16.5144 73.3492 16.5144 73.1564 16.5144C73.1564 16.8024 73.0599 17.6664 73.0599 18.4344C72.9635 18.6264 72.9635 20.0664 72.9635 20.0664Z" fill="#221E20"></path><path d="M113.464 20.0664C113.464 21.0264 113.271 29.2824 113.367 29.2824C113.367 29.3784 113.367 30.5304 113.367 30.6264C113.367 30.8184 113.367 31.5864 113.367 32.8344C113.367 33.3144 113.367 35.0424 113.367 35.4264C113.367 35.5224 113.367 35.9064 113.367 36.3864C113.367 36.5784 113.367 36.6744 113.367 36.7704C113.367 36.8664 113.367 36.8664 113.367 36.8664C113.367 36.8664 113.174 36.8664 112.981 36.8664C112.789 36.8664 112.596 36.8664 112.403 36.8664C111.728 36.8664 111.728 36.8664 111.728 36.7704C111.728 36.5784 111.728 35.9064 111.728 35.6184C111.728 35.1384 111.728 34.2744 111.728 33.7944C111.728 33.3144 111.728 32.5464 111.728 31.9704C111.728 31.9704 111.824 30.5304 111.824 29.8584C111.824 29.6664 111.824 29.5704 111.824 29.3784C111.824 28.7064 111.921 27.9384 111.921 27.2664C111.921 26.6904 111.824 26.2104 111.824 25.6344C111.824 25.0584 111.824 24.5784 111.921 24.0024C111.921 23.8104 111.921 23.6184 111.921 23.4264C111.921 22.8504 111.921 22.0824 111.824 21.4104C111.824 21.2184 111.824 20.9304 111.824 20.7384C111.824 20.1624 111.824 19.5864 111.824 19.0104C111.824 18.9144 111.728 18.4344 111.728 18.1464C111.728 17.4744 111.728 16.7064 111.728 16.6104C111.631 16.5144 111.149 16.6104 110.86 16.6104C110.378 16.6104 110.185 16.5144 109.51 16.6104C109.028 16.6104 108.642 16.7064 108.449 16.6104C108.449 16.5144 108.449 16.1304 108.449 15.6504C108.449 15.2664 108.449 14.7864 108.546 14.7864C108.739 14.6904 109.124 14.6904 109.414 14.6904C110.185 14.6904 110.667 14.6904 111.342 14.6904C112.114 14.6904 112.692 14.6904 113.464 14.6904C114.235 14.6904 114.814 14.6904 115.392 14.6904C115.585 14.6904 116.164 14.6904 116.839 14.6904C117.321 14.6904 117.031 14.8824 117.128 15.2664C117.128 15.4584 117.224 16.3224 117.031 16.4184C116.935 16.5144 116.549 16.5144 116.164 16.5144C115.585 16.5144 115.392 16.5144 114.524 16.5144C114.139 16.5144 113.849 16.5144 113.656 16.5144C113.656 16.8024 113.56 17.6664 113.56 18.4344C113.464 18.6264 113.464 20.0664 113.464 20.0664Z" fill="#221E20"></path></svg> 